PathFileType	4	(X/Y/Z)	C:/Users/opensim2020/Desktop/walking_exp_matlab/subject01_walking08_straight_03.trc	
DataRate	CameraRate	NumFrames	NumMarkers	Units	OrigDataRate	OrigDataStartFrame	OrigNumFrames	
100.00	100.00	6	43	mm	100.00	2954	326	
Frame#	Time	LFHD			RFHD			LBHD			RBHD			C7			T10			CLAV			STRN			RBAK			LSHO			LUPA			LELB			LFRM			LWRA			LWRB			LFIN			RSHO			RUPA			RELB			RFRM			RWRA			RWRB			RFIN			LASI			RASI			LPSI			RPSI			LTHI			LKNE			LTIB			LANK			LHEE			LTOE			RTHI			RKNE			RTIB			RANK			RHEE			RTOE			*39			*40			*41			*42			
		X1	Y1	Z1	X2	Y2	Z2	X3	Y3	Z3	X4	Y4	Z4	X5	Y5	Z5	X6	Y6	Z6	X7	Y7	Z7	X8	Y8	Z8	X9	Y9	Z9	X10	Y10	Z10	X11	Y11	Z11	X12	Y12	Z12	X13	Y13	Z13	X14	Y14	Z14	X15	Y15	Z15	X16	Y16	Z16	X17	Y17	Z17	X18	Y18	Z18	X19	Y19	Z19	X20	Y20	Z20	X21	Y21	Z21	X22	Y22	Z22	X23	Y23	Z23	X24	Y24	Z24	X25	Y25	Z25	X26	Y26	Z26	X27	Y27	Z27	X28	Y28	Z28	X29	Y29	Z29	X30	Y30	Z30	X31	Y31	Z31	X32	Y32	Z32	X33	Y33	Z33	X34	Y34	Z34	X35	Y35	Z35	X36	Y36	Z36	X37	Y37	Z37	X38	Y38	Z38	X39	Y39	Z39	X40	Y40	Z40	X41	Y41	Z41	X42	Y42	Z42	X43	Y43	Z43	

245	2.440	-1066.84485	661.48267	1655.12720	-954.07153	679.09375	1661.10364	-1055.47876	541.79150	1620.78406	-934.82544	557.56702	1626.45068	-1008.45251	492.35910	1422.84705	-991.66681	460.28864	1128.48804	-1007.48236	636.22205	1355.93591	-1008.99976	682.59369	1202.68616	-922.97351	441.06268	1228.22339	-1170.01990	574.89386	1381.04431	-1247.75098	536.23016	1194.50439	-1242.99438	511.50958	1047.03833	-1266.94019	535.37018	936.25378	-1247.38000	596.96460	810.83112	-1272.96143	542.38141	814.08960	-1279.19470	579.35303	736.87286	-855.24292	575.00928	1385.23804	-745.69409	539.58240	1183.93701	-738.17505	555.17798	1058.53259	-710.13226	612.39764	950.80908	-734.70898	719.21320	860.14362	-693.79529	679.55219	849.40961	-696.88623	736.77698	786.58258	-1094.32471	641.42975	927.28033	-876.54266	633.87323	922.33344	-1052.43542	452.83517	931.28186	-908.29474	449.01721	936.25616	-1162.24084	690.09772	611.89832	-1147.27612	719.47968	483.87778	-1165.13354	712.82367	295.82364	-1126.60413	743.22107	76.03875	-1073.01758	705.15088	41.32629	-1131.16284	892.26495	58.35519	-831.50043	536.46533	593.08051	-857.51019	515.34918	432.52267	-849.32520	406.95810	291.61945	-898.01270	308.12427	108.33530	-945.81482	247.32964	86.44950	-907.82013	431.23111	36.68024	-976.78784	668.83636	1695.05493	-3101.82446	1973.11646	1023.34277	-3140.67603	2012.46265	1021.91827			 
246	2.450	-1069.28223	668.73425	1655.92493	-956.14441	686.13593	1661.88586	-1057.92004	549.17224	1621.10413	-937.18097	564.59595	1626.77893	-1010.93982	499.96448	1423.35645	-993.73297	468.10504	1128.97742	-1009.70178	643.77283	1356.54980	-1011.05688	690.48517	1203.40979	-925.48401	448.71335	1228.54602	-1172.22583	582.59497	1381.34924	-1249.96240	544.58337	1194.59424	-1245.24609	520.76807	1046.93567	-1268.97095	545.35840	936.29822	-1249.02893	607.59698	811.26642	-1274.91614	553.11469	814.22241	-1280.98328	590.44592	737.27374	-857.41748	582.32233	1385.82288	-748.10522	545.99237	1184.65039	-740.23792	561.00409	1059.28613	-712.09857	617.38416	951.14941	-736.27155	723.68097	859.64447	-695.50330	683.70929	849.28827	-698.17603	740.57599	786.08405	-1095.91052	649.92621	927.95490	-878.55658	641.68829	922.56769	-1054.31287	461.20663	932.15088	-909.94427	457.21356	936.66064	-1163.22693	698.12476	612.96143	-1147.95178	727.09619	484.68423	-1166.12366	719.02246	296.25571	-1127.06946	744.74731	75.57610	-1073.50537	705.92377	41.77332	-1130.36694	893.90149	55.12318	-832.99652	544.65790	593.25665	-858.51038	523.45056	432.73853	-849.92218	412.21396	293.85818	-897.73816	310.39124	111.95121	-945.79114	249.49504	91.50561	-907.74738	431.61197	36.73690	-978.86896	675.82001	1695.79224	-3101.98755	1973.05554	1023.44360	-3140.73267	2012.48938	1022.05774			 
247	2.460	-1071.31079	675.94055	1656.63196	-958.23718	692.97845	1662.70630	-1060.36206	556.44128	1621.39502	-939.68341	571.48059	1627.16003	-1013.41028	507.46552	1423.82520	-995.72943	475.24823	1129.44714	-1011.92865	651.33307	1357.23975	-1013.12390	698.44446	1204.26038	-927.88141	456.37698	1229.05762	-1174.64099	590.28943	1381.79199	-1252.13538	553.03052	1194.90210	-1247.48816	530.03766	1047.04016	-1270.97900	555.48450	936.56122	-1250.64673	618.39825	811.94019	-1276.73816	564.10272	814.45477	-1282.67932	601.90552	737.89447	-859.76910	589.68188	1386.58984	-750.48456	552.03918	1185.42834	-742.51678	566.71619	1060.10840	-714.13251	622.34332	951.72699	-737.91602	727.94971	859.42316	-697.22955	687.81781	849.27148	-699.55042	744.17059	785.71265	-1097.51392	658.41748	928.78900	-880.07855	650.07245	923.16162	-1056.15344	469.45596	933.13672	-911.85895	465.41748	937.36896	-1164.48340	706.04425	613.71936	-1148.56042	734.30255	484.95023	-1167.44299	724.67255	296.25299	-1127.25024	746.26990	75.30277	-1073.81116	706.65588	42.06589	-1129.83740	895.24298	52.16411	-834.42236	553.46619	593.69672	-859.02795	532.74756	433.08667	-850.68451	418.07852	296.56100	-897.54370	313.15488	116.06165	-945.95026	252.00775	97.22298	-907.43341	432.09955	36.82338	-981.00067	682.62531	1696.57043	-3102.00928	1973.14050	1023.40826	-3140.74780	2012.45276	1022.02844			 
248	2.470	-1073.29248	683.09015	1657.39331	-960.26086	699.76801	1663.70862	-1062.87866	563.70026	1621.74756	-941.97284	578.42896	1627.62769	-1015.79767	514.90503	1424.37354	-997.81635	483.29031	1129.94727	-1014.15240	658.96960	1358.01721	-1015.20435	706.39850	1205.19482	-930.18298	464.12292	1229.56958	-1176.89270	597.98859	1382.44446	-1254.34888	561.44537	1195.36279	-1249.68420	539.50922	1047.48462	-1273.07678	565.79785	937.03400	-1252.24146	629.35376	812.84058	-1278.65930	575.23053	815.02942	-1284.31519	613.59619	738.67505	-862.11951	597.10034	1387.26318	-752.85876	558.36780	1186.44202	-744.70074	572.39722	1061.14978	-716.12823	627.17090	952.37817	-739.53308	732.01782	859.10828	-698.91046	691.85626	849.48096	-701.04486	747.85376	785.50012	-1099.31018	666.79578	929.70074	-882.11725	657.89630	923.68524	-1058.01465	477.94733	934.01410	-913.85931	473.81641	938.03564	-1165.68225	713.83453	613.95410	-1149.33459	741.21271	484.80981	-1168.58533	729.66968	295.90021	-1127.34497	747.73248	75.13671	-1074.10535	707.39447	42.61672	-1129.90503	896.17468	49.71633	-835.87158	562.95300	593.92621	-859.60168	542.45819	433.26599	-851.37720	424.19354	299.63605	-897.38300	316.40033	120.51839	-946.30707	255.42296	103.48583	-907.35754	432.59372	36.85678	-983.20520	689.26501	1697.45532	-3101.98999	1973.13306	1023.49457	-3140.72974	2012.46692	1022.04736			 
249	2.480	-1075.30725	690.18481	1658.29199	-962.30243	706.48901	1664.74731	-1065.22363	570.88312	1622.14124	-944.45850	585.17554	1628.16577	-1018.12115	522.37256	1424.88635	-1000.01672	491.29327	1130.49512	-1016.40771	666.58636	1358.91016	-1017.24725	714.35059	1206.17737	-932.39911	471.82269	1230.21960	-1179.19165	605.71979	1383.19641	-1256.65466	569.94427	1196.01550	-1252.00110	548.98450	1047.93921	-1275.14575	576.21332	937.69183	-1253.84009	640.54633	813.96704	-1280.50256	586.54144	815.70764	-1286.16943	625.47852	739.75458	-864.36316	604.61963	1388.17712	-755.26855	564.63873	1187.53284	-746.95734	578.02759	1062.24744	-718.18927	631.93738	953.12549	-741.31470	735.99908	858.98914	-700.75073	695.57251	849.63348	-702.70831	751.13672	785.16724	-1101.23425	675.18024	930.61530	-884.35535	665.67029	924.41223	-1059.99866	486.18930	934.97754	-915.87689	482.00864	938.89020	-1166.86340	721.46307	614.17249	-1150.12842	747.79083	484.36108	-1169.46802	734.24658	295.42783	-1127.20203	749.03845	75.00791	-1074.05090	708.20465	43.11704	-1130.17383	896.93274	47.89787	-837.19043	572.88812	594.37958	-859.95367	552.80457	433.41940	-852.33179	431.52682	302.83795	-897.22412	320.82397	125.65186	-946.71167	259.74127	110.36829	-906.90350	433.21527	36.95641	-985.29852	695.90436	1698.46362	-3101.95483	1973.11951	1023.58484	-3140.82764	2012.41638	1021.98468			 
250	2.490	-1077.24573	697.09125	1659.36475	-964.28796	713.19690	1665.95129	-1067.46997	577.96600	1622.58142	-946.71735	591.97034	1628.72632	-1020.54224	529.94788	1425.54895	-1002.30170	499.27200	1131.12939	-1018.58441	674.18536	1359.82300	-1019.32983	722.24316	1207.18079	-934.56396	479.53357	1230.95374	-1181.42725	613.45435	1384.07056	-1258.85803	578.47546	1196.74426	-1254.42749	558.53723	1048.52966	-1277.21643	586.74725	938.48175	-1255.61145	652.10596	815.47192	-1282.38013	598.01453	816.60693	-1287.71802	637.58636	740.87213	-866.74591	611.94623	1389.05188	-757.61206	571.13617	1188.76733	-749.38470	583.59814	1063.26843	-720.23053	636.47534	953.83527	-743.11987	739.69800	858.72235	-702.53003	699.25867	849.79016	-704.42389	754.07001	784.69611	-1103.30273	683.31384	931.41779	-886.20697	674.25476	925.39319	-1062.10242	494.39267	935.97369	-918.09418	490.25574	939.76172	-1167.96277	728.61597	614.17871	-1151.00720	753.95355	483.86514	-1170.24438	738.54651	294.97928	-1126.94788	750.19666	74.96533	-1074.03711	708.94397	43.52333	-1130.04749	898.00659	46.26324	-838.46014	583.46802	594.67084	-859.88849	564.51617	433.49545	-853.03687	439.63330	306.17676	-897.58667	324.97675	131.10097	-947.61670	265.10028	117.83131	-907.06165	433.80585	36.93134	-987.39270	702.40283	1699.56262	-3102.00879	1973.07617	1023.60962	-3140.72461	2012.49890	1022.05371			 
